<?xml version="1.0" encoding="UTF-8"?>
<svg id="Layer_1" data-name="Layer 1" xmlns="http://www.w3.org/2000/svg" version="1.1" viewBox="0 0 107.8 50.8">
  <defs>
    <style>
      .cls-1, .cls-2 {
        fill: #bb1015;
      }

      .cls-1, .cls-3 {
        stroke-width: 0px;
      }

      .cls-4, .cls-2 {
        font-family: MyriadPro-Bold, 'Myriad Pro';
        font-size: 60px;
        font-weight: 700;
      }

      .cls-4, .cls-2, .cls-5 {
        isolation: isolate;
      }

      .cls-4, .cls-3 {
        fill: #505050;
      }

      .cls-6 {
        display: none;
      }
    </style>
  </defs>
  <g>
    <path class="cls-3" d="M6.6,4.7h10.9v16.3h.1c1-1.2,2.2-2.1,3.5-2.8,1.3-.7,2.9-1,4.5-1,6.7,0,10.4,4.7,10.4,13.1v17.1h-10.9v-15.9c0-3.5-1.1-5.6-3.8-5.6s-3,1.2-3.5,2.3c-.2.5-.2,1.3-.2,1.7v17.4H6.6V4.7Z"/>
    <path class="cls-1" d="M51.3,35.7c.4,2.3,3.8,3.7,7.6,3.7s5.4-.3,8-1.1l1.4,7.2c-3.5,1.4-7.4,1.9-11,1.9-10.4,0-16.3-5.7-16.3-15.1s4.4-15.7,15.3-15.7,13.6,7,13.6,15.1-.2,3.4-.4,4.1h-18.2ZM60,28.4c0-1.7-.8-4.8-4.2-4.8s-4.4,2.9-4.6,4.8h8.8Z"/>
  </g>
  <g>
    <path class="cls-3" d="M89.2,4"/>
    <path class="cls-3" d="M79.3,41.6l1,5.2,15.6.2,1.3-5.7c-5,1.1-6.4-.3-7-.5-1.2.8-4.2,2.1-10.9.8Z"/>
    <path class="cls-3" d="M95.5,26.4c-4.1,3.8-1.1,7.3-.4,8.6-2.2,2.8-4.3,5.7-10.4,6.2s-8.6-2.2-9.6-5.1c-2.4-1.9-2.1-4.6-.5-8.6-1-3.2.2-5.4,4.8-6.8,0,0,3.7-.8,6.3.5,2.7,1.2,4.3.9,7.1-.2,2.8-1.1,5.8-.6,8,.8s2.2,5.4,1.5,6.4c1.7,2.5,2.1,6.1-.5,9.1-.3,3.7-7.6,4.3-10.7,3,2.2-1.8,4.9-5.4,4.9-5.4,0,0-4.1-3.4-.4-8.5h0ZM81.8,26.5c2.9,4.5,2.4,5.8.3,8.9,2.2.4,4.7-.2,5.3-.4-1.1-.2-3.2-.3-4-.2,2-3.7.3-7.5-1.7-8.3h.1Z"/>
    <path class="cls-3" d="M84.4,17.4c-1.6-2.6-3.4-6.8.1-11.3,4.4-4.2,8.1-.8,8.8,0,.7.8,3.8,4.8.6,10.4-3.2,5.6-5.7,7-9.5.8h0Z"/>
    <path class="cls-3" d="M95,9.1c-.5-2.9-3-5.2-6.1-5.2s-5.6,2.3-6.1,5.2c-.6,1.9-.4,3.7,0,5.2.6,3.3,3.1,7.2,6,7.2s5.3-3.9,6-7.2c.7-2.1.5-3.9,0-5.3h.2Z"/>
  </g>
  <g id="Layer_2" data-name="Layer 2" class="cls-6">
    <g class="cls-5">
      <text class="cls-4" transform="translate(-136 -12.1)"><tspan x="0" y="0">high</tspan></text>
      <text class="cls-2" transform="translate(-10.8 -12.1)"><tspan x="0" y="0">er</tspan></text>
      <text class="cls-4" transform="translate(45.7 -12.1)"><tspan x="0" y="0">end</tspan></text>
      <text class="cls-2" transform="translate(150.6 -12.1)"><tspan x="0" y="0">eavors</tspan></text>
    </g>
  </g>
  <g id="Layer_3" data-name="Layer 3" class="cls-6">
    <g class="cls-6">
      <g>
        <path class="cls-1" d="M21.7-104.7c0-4-.1-7.3-.2-10.1h9.4l.5,3.8h.2c1.1-1.6,4-4.4,8.9-4.4s10.7,4.7,10.7,12.8v17.4h-10.9v-16.1c0-3.4-1.1-5.4-3.8-5.4s-3.1,1.4-3.5,2.6c-.2.5-.3,1.4-.3,2.2v16.7h-10.9v-19.4h0Z"/>
        <path class="cls-1" d="M87.6-127.9v33.4c0,3.7.1,7.3.2,9.3h-9.7l-.4-4h-.1c-1.9,3.3-5.5,4.6-8.9,4.6-6.8,0-12.5-5.9-12.5-15.2s6.2-15.7,13.2-15.7,5.9,1,7.2,2.9h.1v-15.4h10.9ZM76.7-102v-1.4c-.4-2.1-2-3.8-4.3-3.8-3.6,0-5.2,3.2-5.2,7.1s2.2,6.9,5.2,6.9,3.8-1.6,4.2-3.5c.2-.6.2-1.3.2-2v-3.3h0Z"/>
        <path class="cls-1" d="M103.1-96.2c.4,2.3,3.8,3.7,7.6,3.7s5.4-.3,8-1.1l1.4,7.2c-3.5,1.4-7.4,1.9-11,1.9-10.4,0-16.3-5.7-16.3-15.1s4.4-15.7,15.3-15.7,13.6,7,13.6,15.1-.2,3.4-.4,4.1h-18.2ZM111.8-103.6c0-1.7-.8-4.8-4.2-4.8s-4.4,2.9-4.6,4.8h8.8Z"/>
        <path class="cls-1" d="M152.9-92.5c0,2.9.2,5.7.5,7.2h-9.8l-.5-2.6h-.2c-2,2.3-5,3.2-8.2,3.2-6.1,0-9.8-4.4-9.8-9.3,0-7.9,7.1-11.5,17.2-11.5v-.2c0-1.2-.9-2.5-4.9-2.5s-6.4,1.1-8.3,2.2l-1.9-6.8c1.9-1,6.1-2.7,12.2-2.7,10.1,0,13.7,5.6,13.7,13v10h0ZM142.4-98.8c-4.4,0-6.9,1.2-6.9,3.8s1.2,2.8,3.1,2.8,3.2-1.1,3.7-2.7c.1-.5.1-1,.1-1.6v-2.4h0Z"/>
        <path class="cls-1" d="M167.6-114.8l3.2,12.5c.6,2.3,1,4.6,1.4,7h.2c.4-2.4.7-4.5,1.3-7l2.9-12.5h11.3l-10.7,29.5h-10.9l-10.5-29.5h11.8Z"/>
        <path class="cls-1" d="M204.9-84.6c-8.8,0-15.7-5.6-15.7-15.2s6.2-15.7,16.3-15.7,15.4,6.2,15.4,15.1-7.7,15.7-15.9,15.7h0ZM205.2-92.2c2.9,0,4.5-3.1,4.5-7.8s-1.3-7.8-4.5-7.8-4.8,3.9-4.8,7.8,1.4,7.8,4.7,7.8h0Z"/>
        <path class="cls-1" d="M226-104.8c0-4.7,0-7.5-.2-10h9.2l.4,5.3h.2c1.6-4.5,5.3-6,7.9-6s1.4,0,2.2.2v10.1c-.8-.2-1.6-.3-2.8-.3-3.2,0-5.3,1.3-5.9,3.7,0,.5-.1,1.1-.1,1.9v14.6h-10.9v-19.6h0Z"/>
        <path class="cls-1" d="M250.5-94.4c1.7,1,5.5,2.2,8.2,2.2s3.2-.5,3.2-1.6-.7-1.5-3.8-2.5c-6.5-2-8.8-5.6-8.7-9,0-5.9,5-10.1,12.8-10.1s6.8.8,8.8,1.7l-1.7,7.3c-1.4-.7-4.1-1.6-6.5-1.6s-2.9.5-2.9,1.7,1,1.6,4.4,2.7c5.8,1.9,8,4.9,8.1,9.1,0,5.6-4.4,9.9-13.5,9.9s-7.8-.9-10.1-2.1l1.9-7.6h-.2Z"/>
      </g>
      <path class="cls-3" d="M-135.7-127.9h10.9v16.3h0c1-1.2,2.2-2.1,3.5-2.8s2.9-1,4.5-1c6.7,0,10.4,4.7,10.4,13.1v17.1h-10.9v-15.9c0-3.5-1.1-5.6-3.8-5.6s-3,1.2-3.5,2.3c-.2.5-.2,1.3-.2,1.7v17.4h-10.9v-42.7h0Z"/>
      <path class="cls-3" d="M-94.4-117.8c-3.4,0-5.5-2.3-5.5-5.1s2.2-5.2,5.5-5.2,5.5,2.2,5.5,5.2-2.2,5.1-5.5,5.1h0ZM-99.8-85.3v-29.5h10.9v29.5h-10.9Z"/>
      <path class="cls-3" d="M-53.1-89.6c0,5.2-1,10.1-4.6,13.2-3.4,2.9-7.9,3.7-12.4,3.7s-8.2-.8-11-2.2l2-8.2c1.8,1,5.2,2.2,8.5,2.2s6.8-2.1,6.8-6.7v-1.3h0c-1.8,2.2-4.4,3.3-7.4,3.3-7.2,0-12.4-5.8-12.4-14.3s6-15.5,13.4-15.5,6.1,1.4,7.6,3.8h0l.4-3.2h9.3c0,1.9-.2,4.4-.2,9.1v16.1h0ZM-63.9-102.6c0-.5,0-1,0-1.4-.5-2.2-1.9-3.4-3.8-3.4s-4.8,2.5-4.8,7.2,1.8,6.7,4.8,6.7,3.4-1.3,3.8-2.9c.2-.6.2-1.6.2-2.2v-4h0Z"/>
      <path class="cls-3" d="M-46.5-127.9h10.9v16.3h.1c1-1.2,2.2-2.1,3.5-2.8s2.9-1,4.5-1c6.7,0,10.4,4.7,10.4,13.1v17.1h-10.9v-15.9c0-3.5-1.1-5.6-3.8-5.6s-3,1.2-3.5,2.3c-.2.5-.2,1.3-.2,1.7v17.4h-10.9v-42.7h0Z"/>
      <path class="cls-1" d="M-1.7-96.2c.4,2.3,3.8,3.7,7.6,3.7s5.4-.3,8-1.1l1.4,7.2c-3.5,1.4-7.4,1.9-11,1.9-10.4,0-16.3-5.7-16.3-15.1s4.4-15.7,15.3-15.7,13.6,7,13.6,15.1-.2,3.4-.4,4.1H-1.7ZM7-103.6c0-1.7-.8-4.8-4.2-4.8s-4.4,2.9-4.6,4.8H7Z"/>
      <path class="cls-3" d="M21.8-104.8c0-4.7,0-7.5-.2-10h9.2l.4,5.3h.2c1.6-4.5,5.3-6,7.9-6s1.4,0,2.2.2v10.1c-.8-.2-1.6-.3-2.8-.3-3.2,0-5.3,1.3-5.9,3.7,0,.5-.1,1.1-.1,1.9v14.6h-10.9v-19.6h0Z"/>
    </g>
  </g>
</svg>