<?xml version="1.0" encoding="UTF-8"?>
<svg xmlns="http://www.w3.org/2000/svg" version="1.1" viewBox="0 0 419.4 62.8">
  <defs>
    <style>
      .cls-1 {
        fill: #8b0000;
      }

      .cls-2 {
        font-family: NewZen-ExtraBoldItalic, 'New Zen';
        font-size: 48px;
        font-style: italic;
        font-weight: 700;
      }

      .cls-3 {
        fill: #b590ac;
      }

      .cls-4 {
        fill: #4f4f4f;
      }
    </style>
  </defs>
  <!-- Generator: Adobe Illustrator 28.6.0, SVG Export Plug-In . SVG Version: 1.2.0 Build 709)  -->
  <g>
    <g id="Layer_1">
      <text class="cls-2" transform="translate(6.7 47.4)"><tspan class="cls-3" x="0" y="0">higher</tspan><tspan class="cls-1" x="142.9" y="0">endeavors</tspan></text>
      <g>
        <path class="cls-4" d="M395.2,4.4"/>
        <path class="cls-4" d="M385.3,42.1l1,5.2,15.6.2,1.3-5.7c-5,1.1-6.4-.3-7-.5-1.2.8-4.2,2.1-10.9.8Z"/>
        <path class="cls-4" d="M401.5,26.9c-4.1,3.8-1.1,7.3-.4,8.6-2.2,2.8-4.3,5.7-10.4,6.2-6.1.5-8.6-2.2-9.6-5.1-2.4-1.9-2.1-4.6-.5-8.6-1-3.2.2-5.4,4.8-6.8,0,0,3.7-.8,6.3.5,2.7,1.2,4.3.9,7.1-.2,2.8-1.1,5.8-.6,8,.8,2.2,1.4,2.2,5.4,1.5,6.4,1.7,2.5,2.1,6.1-.5,9.1-.3,3.7-7.6,4.3-10.7,3,2.2-1.8,4.9-5.4,4.9-5.4,0,0-4.1-3.4-.4-8.5ZM387.8,27c2.9,4.5,2.4,5.8.3,8.9,2.2.4,4.7-.2,5.3-.4-1.1-.2-3.2-.3-4-.2,2-3.7.3-7.5-1.7-8.3Z"/>
        <path class="cls-4" d="M390.4,17.9c-1.6-2.6-3.4-6.8.1-11.3,4.4-4.2,8.1-.8,8.8,0,.7.8,3.8,4.8.6,10.4-3.2,5.6-5.7,7-9.5.8Z"/>
        <path class="cls-4" d="M400.9,9.6c-.5-2.9-3-5.2-6.1-5.2s-5.6,2.3-6.1,5.2c-.6,1.9-.4,3.7,0,5.2.6,3.3,3.1,7.2,6,7.2s5.3-3.9,6-7.2c.7-2.1.5-3.9,0-5.3Z"/>
      </g>
    </g>
  </g>
</svg>