<?xml version="1.0" encoding="UTF-8"?>
<svg xmlns="http://www.w3.org/2000/svg" version="1.1" viewBox="0 0 509.6 64.1">
  <defs>
    <style>
      .cls-1, .cls-2 {
        fill: #bb1015;
      }

      .cls-1, .cls-3 {
        stroke-width: 0px;
      }

      .cls-4 {
        font-family: MyriadPro-Black, 'Myriad Pro';
        font-size: 60px;
        font-weight: 800;
      }

      .cls-3, .cls-5 {
        fill: #505050;
      }

      .cls-6 {
        display: none;
      }
    </style>
  </defs>
  <g id="Layer_1" data-name="Layer 1">
    <g>
      <g>
        <path class="cls-3" d="M5.7,4.9h10.9v16.3h.1c1-1.2,2.2-2.1,3.5-2.8,1.3-.7,2.9-1,4.5-1,6.7,0,10.4,4.7,10.4,13.1v17.1h-10.9v-15.9c0-3.5-1.1-5.6-3.8-5.6s-3,1.2-3.5,2.3c-.2.5-.2,1.3-.2,1.7v17.4H5.7V4.9Z"/>
        <path class="cls-3" d="M47.1,14.9c-3.4,0-5.5-2.3-5.5-5.1s2.2-5.2,5.5-5.2,5.5,2.2,5.5,5.2c0,2.8-2.2,5.1-5.5,5.1h0ZM41.7,47.5v-29.5h10.9v29.5h-10.9Z"/>
        <path class="cls-3" d="M88.3,43.2c0,5.2-1,10.1-4.6,13.2-3.4,2.9-7.9,3.7-12.4,3.7s-8.2-.8-11-2.2l2-8.2c1.8,1,5.2,2.2,8.5,2.2s6.8-2.1,6.8-6.7v-1.3h-.1c-1.8,2.2-4.4,3.3-7.4,3.3-7.2,0-12.4-5.8-12.4-14.3s6-15.5,13.4-15.5,6.1,1.4,7.6,3.8h.1l.4-3.2h9.3c-.1,1.9-.2,4.4-.2,9.1v16.1ZM77.5,30.2c0-.5,0-1-.1-1.4-.5-2.2-1.9-3.4-3.8-3.4s-4.8,2.5-4.8,7.2,1.8,6.7,4.8,6.7,3.4-1.3,3.8-2.9c.2-.6.2-1.6.2-2.2v-4Z"/>
        <path class="cls-3" d="M95,4.9h10.9v16.3h.1c1-1.2,2.2-2.1,3.5-2.8,1.3-.7,2.9-1,4.5-1,6.7,0,10.4,4.7,10.4,13.1v17.1h-10.9v-15.9c0-3.5-1.1-5.6-3.8-5.6s-3,1.2-3.5,2.3c-.2.5-.2,1.3-.2,1.7v17.4h-10.9V4.9Z"/>
        <path class="cls-3" d="M139.7,36.5c.4,2.3,3.8,3.7,7.6,3.7s5.4-.3,8-1.1l1.4,7.2c-3.5,1.4-7.4,1.9-11,1.9-10.4,0-16.3-5.7-16.3-15.1s4.4-15.7,15.3-15.7,13.6,7,13.6,15.1-.2,3.4-.4,4.1h-18.2ZM148.4,29.2c0-1.7-.8-4.8-4.2-4.8s-4.4,2.9-4.6,4.8h8.8Z"/>
        <path class="cls-3" d="M163.2,28c0-4.7,0-7.5-.2-10h9.2l.4,5.3h.2c1.6-4.5,5.3-6,7.9-6s1.4,0,2.2.2v10.1c-.8-.2-1.6-.3-2.8-.3-3.2,0-5.3,1.3-5.9,3.7,0,.5-.1,1.1-.1,1.9v14.6h-10.9v-19.6Z"/>
        <path class="cls-1" d="M195.8,36.5c.4,2.3,3.8,3.7,7.6,3.7s5.4-.3,8-1.1l1.4,7.2c-3.5,1.4-7.4,1.9-11,1.9-10.4,0-16.3-5.7-16.3-15.1s4.4-15.7,15.3-15.7,13.6,7,13.6,15.1-.2,3.4-.4,4.1h-18.2ZM204.5,29.2c0-1.7-.8-4.8-4.2-4.8s-4.4,2.9-4.6,4.8h8.8Z"/>
        <path class="cls-1" d="M219.3,28.1c0-4-.1-7.3-.2-10.1h9.4l.5,3.8h.2c1.1-1.6,4-4.4,8.9-4.4s10.7,4.7,10.7,12.8v17.4h-10.9v-16.1c0-3.4-1.1-5.4-3.8-5.4s-3.1,1.4-3.5,2.6c-.2.5-.3,1.4-.3,2.2v16.7h-10.9v-19.4Z"/>
        <path class="cls-1" d="M285.2,4.9v33.4c0,3.7.1,7.3.2,9.3h-9.7l-.4-4h-.1c-1.9,3.3-5.5,4.6-8.9,4.6-6.8,0-12.5-5.9-12.5-15.2,0-10,6.2-15.7,13.2-15.7s5.9,1,7.2,2.9h.1V4.9h10.9ZM274.3,30.8c0-.4,0-1,0-1.4-.4-2.1-2-3.8-4.3-3.8-3.6,0-5.2,3.2-5.2,7.1s2.2,6.9,5.2,6.9,3.8-1.6,4.2-3.5c.2-.6.2-1.3.2-2v-3.3Z"/>
        <path class="cls-1" d="M300.6,36.5c.4,2.3,3.8,3.7,7.6,3.7s5.4-.3,8-1.1l1.4,7.2c-3.5,1.4-7.4,1.9-11,1.9-10.4,0-16.3-5.7-16.3-15.1s4.4-15.7,15.3-15.7,13.6,7,13.6,15.1-.2,3.4-.4,4.1h-18.2ZM309.3,29.2c0-1.7-.8-4.8-4.2-4.8s-4.4,2.9-4.6,4.8h8.8Z"/>
        <path class="cls-1" d="M350.4,40.3c0,2.9.2,5.7.5,7.2h-9.8l-.5-2.6h-.2c-2,2.3-5,3.2-8.2,3.2-6.1,0-9.8-4.4-9.8-9.3,0-7.9,7.1-11.5,17.2-11.5v-.2c0-1.2-.9-2.5-4.9-2.5s-6.4,1.1-8.3,2.2l-1.9-6.8c1.9-1,6.1-2.7,12.2-2.7,10.1,0,13.7,5.6,13.7,13v10ZM339.9,34c-4.4,0-6.9,1.2-6.9,3.8s1.2,2.8,3.1,2.8,3.2-1.1,3.7-2.7c.1-.5.1-1,.1-1.6v-2.4Z"/>
        <path class="cls-1" d="M365.1,18l3.2,12.5c.6,2.3,1,4.6,1.4,7h.2c.4-2.4.7-4.5,1.3-7l2.9-12.5h11.3l-10.7,29.5h-10.9l-10.5-29.5h11.8Z"/>
        <path class="cls-1" d="M402.4,48.2c-8.8,0-15.7-5.6-15.7-15.2s6.2-15.7,16.3-15.7,15.4,6.2,15.4,15.1-7.7,15.7-15.9,15.7h0ZM402.7,40.6c2.9,0,4.5-3.1,4.5-7.8s-1.3-7.8-4.5-7.8-4.8,3.9-4.8,7.8,1.4,7.8,4.7,7.8h0Z"/>
        <path class="cls-1" d="M423.6,28c0-4.7,0-7.5-.2-10h9.2l.4,5.3h.2c1.6-4.5,5.3-6,7.9-6s1.4,0,2.2.2v10.1c-.8-.2-1.6-.3-2.8-.3-3.2,0-5.3,1.3-5.9,3.7,0,.5-.1,1.1-.1,1.9v14.6h-10.9v-19.6Z"/>
        <path class="cls-1" d="M448,38.4c1.7,1,5.5,2.2,8.2,2.2s3.2-.5,3.2-1.6-.7-1.5-3.8-2.5c-6.5-2-8.8-5.6-8.7-9,0-5.9,5-10.1,12.8-10.1s6.8.8,8.8,1.7l-1.7,7.3c-1.4-.7-4.1-1.6-6.5-1.6s-2.9.5-2.9,1.7,1,1.6,4.4,2.7c5.8,1.9,8,4.9,8.1,9.1,0,5.6-4.4,9.9-13.5,9.9s-7.8-.9-10.1-2.1l1.9-7.6Z"/>
      </g>
      <g>
        <path class="cls-3" d="M491,4"/>
        <path class="cls-3" d="M481.1,41.6l1,5.2,15.6.2,1.3-5.7c-5,1.1-6.4-.3-7-.5-1.2.8-4.2,2.1-10.9.8Z"/>
        <path class="cls-3" d="M497.3,26.4c-4.1,3.8-1.1,7.3-.4,8.6-2.2,2.8-4.3,5.7-10.4,6.2-6.1.5-8.6-2.2-9.6-5.1-2.4-1.9-2.1-4.6-.5-8.6-1-3.2.2-5.4,4.8-6.8,0,0,3.7-.8,6.3.5,2.7,1.2,4.3.9,7.1-.2,2.8-1.1,5.8-.6,8,.8,2.2,1.4,2.2,5.4,1.5,6.4,1.7,2.5,2.1,6.1-.5,9.1-.3,3.7-7.6,4.3-10.7,3,2.2-1.8,4.9-5.4,4.9-5.4,0,0-4.1-3.4-.4-8.5ZM483.6,26.5c2.9,4.5,2.4,5.8.3,8.9,2.2.4,4.7-.2,5.3-.4-1.1-.2-3.2-.3-4-.2,2-3.7.3-7.5-1.7-8.3Z"/>
        <path class="cls-3" d="M486.2,17.4c-1.6-2.6-3.4-6.8.1-11.3,4.4-4.2,8.1-.8,8.8,0,.7.8,3.8,4.8.6,10.4-3.2,5.6-5.7,7-9.5.8Z"/>
        <path class="cls-3" d="M496.8,9.1c-.5-2.9-3-5.2-6.1-5.2s-5.6,2.3-6.1,5.2c-.6,1.9-.4,3.7,0,5.2.6,3.3,3.1,7.2,6,7.2s5.3-3.9,6-7.2c.7-2.1.5-3.9,0-5.3Z"/>
      </g>
    </g>
  </g>
  <g id="Layer_2" data-name="Layer 2" class="cls-6">
    <text class="cls-4" transform="translate(28.8 -47.1)"><tspan class="cls-5" x="0" y="0">high</tspan><tspan class="cls-2" x="125.2" y="0">er</tspan><tspan class="cls-5" x="181.7" y="0">end</tspan><tspan class="cls-2" x="286.6" y="0">eavors</tspan></text>
  </g>
  <g id="Layer_3" data-name="Layer 3" class="cls-6">
    <g>
      <g>
        <path class="cls-1" d="M186.5-139.7c0-4-.1-7.3-.2-10.1h9.4l.5,3.8h.2c1.1-1.6,4-4.4,8.9-4.4s10.7,4.7,10.7,12.8v17.4h-10.9v-16.1c0-3.4-1.1-5.4-3.8-5.4s-3.1,1.4-3.5,2.6c-.2.5-.3,1.4-.3,2.2v16.7h-10.9v-19.4Z"/>
        <path class="cls-1" d="M252.4-162.9v33.4c0,3.7.1,7.3.2,9.3h-9.7l-.4-4h-.1c-1.9,3.3-5.5,4.6-8.9,4.6-6.8,0-12.5-5.9-12.5-15.2,0-10,6.2-15.7,13.2-15.7s5.9,1,7.2,2.9h.1v-15.4h10.9ZM241.5-137c0-.4,0-1,0-1.4-.4-2.1-2-3.8-4.3-3.8-3.6,0-5.2,3.2-5.2,7.1s2.2,6.9,5.2,6.9,3.8-1.6,4.2-3.5c.2-.6.2-1.3.2-2v-3.3Z"/>
        <path class="cls-1" d="M267.9-131.2c.4,2.3,3.8,3.7,7.6,3.7s5.4-.3,8-1.1l1.4,7.2c-3.5,1.4-7.4,1.9-11,1.9-10.4,0-16.3-5.7-16.3-15.1s4.4-15.7,15.3-15.7,13.6,7,13.6,15.1-.2,3.4-.4,4.1h-18.2ZM276.6-138.6c0-1.7-.8-4.8-4.2-4.8s-4.4,2.9-4.6,4.8h8.8Z"/>
        <path class="cls-1" d="M317.7-127.5c0,2.9.2,5.7.5,7.2h-9.8l-.5-2.6h-.2c-2,2.3-5,3.2-8.2,3.2-6.1,0-9.8-4.4-9.8-9.3,0-7.9,7.1-11.5,17.2-11.5v-.2c0-1.2-.9-2.5-4.9-2.5s-6.4,1.1-8.3,2.2l-1.9-6.8c1.9-1,6.1-2.7,12.2-2.7,10.1,0,13.7,5.6,13.7,13v10ZM307.2-133.8c-4.4,0-6.9,1.2-6.9,3.8s1.2,2.8,3.1,2.8,3.2-1.1,3.7-2.7c.1-.5.1-1,.1-1.6v-2.4Z"/>
        <path class="cls-1" d="M332.4-149.8l3.2,12.5c.6,2.3,1,4.6,1.4,7h.2c.4-2.4.7-4.5,1.3-7l2.9-12.5h11.3l-10.7,29.5h-10.9l-10.5-29.5h11.8Z"/>
        <path class="cls-1" d="M369.7-119.6c-8.8,0-15.7-5.6-15.7-15.2s6.2-15.7,16.3-15.7,15.4,6.2,15.4,15.1-7.7,15.7-15.9,15.7h0ZM370-127.2c2.9,0,4.5-3.1,4.5-7.8s-1.3-7.8-4.5-7.8-4.8,3.9-4.8,7.8,1.4,7.8,4.7,7.8h0Z"/>
        <path class="cls-1" d="M390.8-139.8c0-4.7,0-7.5-.2-10h9.2l.4,5.3h.2c1.6-4.5,5.3-6,7.9-6s1.4,0,2.2.2v10.1c-.8-.2-1.6-.3-2.8-.3-3.2,0-5.3,1.3-5.9,3.7,0,.5-.1,1.1-.1,1.9v14.6h-10.9v-19.6Z"/>
        <path class="cls-1" d="M415.3-129.4c1.7,1,5.5,2.2,8.2,2.2s3.2-.5,3.2-1.6-.7-1.5-3.8-2.5c-6.5-2-8.8-5.6-8.7-9,0-5.9,5-10.1,12.8-10.1s6.8.8,8.8,1.7l-1.7,7.3c-1.4-.7-4.1-1.6-6.5-1.6s-2.9.5-2.9,1.7,1,1.6,4.4,2.7c5.8,1.9,8,4.9,8.1,9.1,0,5.6-4.4,9.9-13.5,9.9s-7.8-.9-10.1-2.1l1.9-7.6Z"/>
      </g>
      <path class="cls-3" d="M29.1-162.9h10.9v16.3h.1c1-1.2,2.2-2.1,3.5-2.8,1.3-.7,2.9-1,4.5-1,6.7,0,10.4,4.7,10.4,13.1v17.1h-10.9v-15.9c0-3.5-1.1-5.6-3.8-5.6s-3,1.2-3.5,2.3c-.2.5-.2,1.3-.2,1.7v17.4h-10.9v-42.7Z"/>
      <path class="cls-3" d="M70.4-152.8c-3.4,0-5.5-2.3-5.5-5.1s2.2-5.2,5.5-5.2,5.5,2.2,5.5,5.2c0,2.8-2.2,5.1-5.5,5.1h0ZM65-120.3v-29.5h10.9v29.5h-10.9Z"/>
      <path class="cls-3" d="M111.7-124.6c0,5.2-1,10.1-4.6,13.2-3.4,2.9-7.9,3.7-12.4,3.7s-8.2-.8-11-2.2l2-8.2c1.8,1,5.2,2.2,8.5,2.2s6.8-2.1,6.8-6.7v-1.3h-.1c-1.8,2.2-4.4,3.3-7.4,3.3-7.2,0-12.4-5.8-12.4-14.3s6-15.5,13.4-15.5,6.1,1.4,7.6,3.8h.1l.4-3.2h9.3c-.1,1.9-.2,4.4-.2,9.1v16.1ZM100.9-137.6c0-.5,0-1-.1-1.4-.5-2.2-1.9-3.4-3.8-3.4s-4.8,2.5-4.8,7.2,1.8,6.7,4.8,6.7,3.4-1.3,3.8-2.9c.2-.6.2-1.6.2-2.2v-4Z"/>
      <path class="cls-3" d="M118.3-162.9h10.9v16.3h.1c1-1.2,2.2-2.1,3.5-2.8,1.3-.7,2.9-1,4.5-1,6.7,0,10.4,4.7,10.4,13.1v17.1h-10.9v-15.9c0-3.5-1.1-5.6-3.8-5.6s-3,1.2-3.5,2.3c-.2.5-.2,1.3-.2,1.7v17.4h-10.9v-42.7Z"/>
      <path class="cls-1" d="M163.1-131.2c.4,2.3,3.8,3.7,7.6,3.7s5.4-.3,8-1.1l1.4,7.2c-3.5,1.4-7.4,1.9-11,1.9-10.4,0-16.3-5.7-16.3-15.1s4.4-15.7,15.3-15.7,13.6,7,13.6,15.1-.2,3.4-.4,4.1h-18.2ZM171.8-138.6c0-1.7-.8-4.8-4.2-4.8s-4.4,2.9-4.6,4.8h8.8Z"/>
      <path class="cls-3" d="M186.6-139.8c0-4.7,0-7.5-.2-10h9.2l.4,5.3h.2c1.6-4.5,5.3-6,7.9-6s1.4,0,2.2.2v10.1c-.8-.2-1.6-.3-2.8-.3-3.2,0-5.3,1.3-5.9,3.7,0,.5-.1,1.1-.1,1.9v14.6h-10.9v-19.6Z"/>
    </g>
  </g>
</svg>